<?xml version="1.0" encoding="UTF-8"?>
<svg id="Layer_1" data-name="Layer 1" xmlns="http://www.w3.org/2000/svg" version="1.1" viewBox="0 0 180 180">
  <defs>
    <style>
      .cls-1 {
        fill: #faf9f7;
      }

      .cls-1, .cls-2, .cls-3, .cls-4, .cls-5 {
        stroke-width: 0px;
      }

      .cls-2 {
        fill: #2495d8;
      }

      .cls-3 {
        fill: #f26927;
      }

      .cls-4 {
        fill: #2373b3;
      }

      .cls-5 {
        fill: #236da5;
      }
    </style>
  </defs>
  <polygon class="cls-2" points="48.73 45.95 48.73 54.49 57.46 45.95 48.73 45.95"/>
  <polygon class="cls-2" points="48.73 59.81 48.73 70.25 66.39 52.97 72.46 52.97 80.43 45.95 62.59 45.95 48.73 59.81"/>
  <polygon class="cls-2" points="48.73 113.15 48.73 123.68 51.96 126.25 63.82 126.25 48.73 113.15"/>
  <polygon class="cls-2" points="70.18 116.47 99.99 143.05 108.72 134.03 88.41 116.47 70.18 116.47"/>
  <polygon class="cls-5" points="118.78 143.05 99.99 143.05 108.72 134.03 118.78 143.05"/>
  <polygon class="cls-2" points="92.77 143.05 76.64 130.33 27.66 130.33 38.48 117.7 38.58 39.68 88.98 39.68 104.16 25.92 38.39 25.92 38.2 10.92 26.14 22.6 39.34 35.13 36.68 35.22 26.14 26.02 .42 25.83 16.65 39.68 26.24 39.78 26.43 162.03 48.35 143.05 92.77 143.05"/>
  <polygon class="cls-2" points="81.29 52.4 102.93 52.4 120.58 37.03 127.42 37.03 111.85 52.4 128.27 52.4 155.7 25.83 110.62 25.83 81.29 52.4"/>
  <polygon class="cls-4" points="55.66 117.7 55.66 130.33 44.84 130.33 55.66 117.7"/>
  <path class="cls-3" d="M86.48,98.93c-2.82,2.2-6.37,3.51-10.22,3.51-9.19,0-16.63-7.45-16.63-16.63s7.45-16.63,16.63-16.63c3.85,0,7.4,1.31,10.22,3.51h0s7.68-6.4,7.68-6.4c-4.71-4.32-11-6.97-17.9-6.97-14.63,0-26.48,11.86-26.48,26.48s11.86,26.48,26.48,26.48c6.7,0,12.83-2.49,17.49-6.6l-7.27-6.76h0Z"/>
  <path class="cls-3" d="M99.13,64.27l.38,47.08h19.84s23.16-3.14,23.25-26.01c.09-22.87-21.74-25.62-21.74-25.62h-20.88l8.73,9.49,9.78-.09s13.57,1.42,13.67,16.42c.09,15-12.72,16.04-12.72,16.04l-6.93.09-10.35,8.83,6.55-8.45v-28.85l-9.59-8.92Z"/>
  <polygon class="cls-1" points="147.16 59.33 157.51 59.33 157.51 60.37 147.16 71.19 147.16 59.33"/>
  <polygon class="cls-3" points="157.03 103.18 157.51 60.37 147.16 71.19 147.16 111.34 180 111.34 173.07 101.66 160.45 101.47 151.72 110.21 157.03 103.18"/>
</svg>